<mxfile host="" modified="2021-01-29T17:28:15.726Z" agent="5.0 (Macintosh; Intel Mac OS X 10_16_0) AppleWebKit/537.36 (KHTML, like Gecko) Chrome/81.0.4044.113 Safari/537.36" etag="owsgCuJcOTpnDYMZhq5D" version="13.7.9" type="embed"><diagram id="R2lEEEUBdFMjLlhIrx00" name="Page-1"><mxGraphModel dx="374" dy="261" grid="1" gridSize="10" guides="1" tooltips="1" connect="1" arrows="1" fold="1" page="1" pageScale="1" pageWidth="850" pageHeight="1100" math="0" shadow="0" extFonts="Permanent Marker^https://fonts.googleapis.com/css?family=Permanent+Marker"><root><mxCell id="0"/><mxCell id="1" parent="0"/><mxCell id="C-vyLk0tnHw3VtMMgP7b-2" value="Purchase" style="shape=table;startSize=30;container=1;collapsible=1;childLayout=tableLayout;fixedRows=1;rowLines=0;fontStyle=1;align=center;resizeLast=1;" parent="1" vertex="1"><mxGeometry x="40" y="400" width="250" height="190" as="geometry"/></mxCell><mxCell id="C-vyLk0tnHw3VtMMgP7b-3" value="" style="shape=partialRectangle;collapsible=0;dropTarget=0;pointerEvents=0;fillColor=none;points=[[0,0.5],[1,0.5]];portConstraint=eastwest;top=0;left=0;right=0;bottom=1;" parent="C-vyLk0tnHw3VtMMgP7b-2" vertex="1"><mxGeometry y="30" width="250" height="30" as="geometry"/></mxCell><mxCell id="C-vyLk0tnHw3VtMMgP7b-4" value="" style="shape=partialRectangle;overflow=hidden;connectable=0;fillColor=none;top=0;left=0;bottom=0;right=0;fontStyle=1;" parent="C-vyLk0tnHw3VtMMgP7b-3" vertex="1"><mxGeometry width="30" height="30" as="geometry"/></mxCell><mxCell id="C-vyLk0tnHw3VtMMgP7b-5" value="purchase_id int NOT NULL " style="shape=partialRectangle;overflow=hidden;connectable=0;fillColor=none;top=0;left=0;bottom=0;right=0;align=left;spacingLeft=6;fontStyle=5;" parent="C-vyLk0tnHw3VtMMgP7b-3" vertex="1"><mxGeometry x="30" width="220" height="30" as="geometry"/></mxCell><mxCell id="C-vyLk0tnHw3VtMMgP7b-6" value="" style="shape=partialRectangle;collapsible=0;dropTarget=0;pointerEvents=0;fillColor=none;points=[[0,0.5],[1,0.5]];portConstraint=eastwest;top=0;left=0;right=0;bottom=0;" parent="C-vyLk0tnHw3VtMMgP7b-2" vertex="1"><mxGeometry y="60" width="250" height="30" as="geometry"/></mxCell><mxCell id="C-vyLk0tnHw3VtMMgP7b-7" value="" style="shape=partialRectangle;overflow=hidden;connectable=0;fillColor=none;top=0;left=0;bottom=0;right=0;" parent="C-vyLk0tnHw3VtMMgP7b-6" vertex="1"><mxGeometry width="30" height="30" as="geometry"/></mxCell><mxCell id="C-vyLk0tnHw3VtMMgP7b-8" value="user_id int NOT NULL" style="shape=partialRectangle;overflow=hidden;connectable=0;fillColor=none;top=0;left=0;bottom=0;right=0;align=left;spacingLeft=6;" parent="C-vyLk0tnHw3VtMMgP7b-6" vertex="1"><mxGeometry x="30" width="220" height="30" as="geometry"/></mxCell><mxCell id="C-vyLk0tnHw3VtMMgP7b-9" value="" style="shape=partialRectangle;collapsible=0;dropTarget=0;pointerEvents=0;fillColor=none;points=[[0,0.5],[1,0.5]];portConstraint=eastwest;top=0;left=0;right=0;bottom=0;" parent="C-vyLk0tnHw3VtMMgP7b-2" vertex="1"><mxGeometry y="90" width="250" height="30" as="geometry"/></mxCell><mxCell id="C-vyLk0tnHw3VtMMgP7b-10" value="" style="shape=partialRectangle;overflow=hidden;connectable=0;fillColor=none;top=0;left=0;bottom=0;right=0;" parent="C-vyLk0tnHw3VtMMgP7b-9" vertex="1"><mxGeometry width="30" height="30" as="geometry"/></mxCell><mxCell id="C-vyLk0tnHw3VtMMgP7b-11" value="order_date date NOT NULL" style="shape=partialRectangle;overflow=hidden;connectable=0;fillColor=none;top=0;left=0;bottom=0;right=0;align=left;spacingLeft=6;" parent="C-vyLk0tnHw3VtMMgP7b-9" vertex="1"><mxGeometry x="30" width="220" height="30" as="geometry"/></mxCell><mxCell id="C-vyLk0tnHw3VtMMgP7b-13" value="Books" style="shape=table;startSize=30;container=1;collapsible=1;childLayout=tableLayout;fixedRows=1;rowLines=0;fontStyle=1;align=center;resizeLast=1;" parent="1" vertex="1"><mxGeometry x="360" y="330" width="270" height="390" as="geometry"/></mxCell><mxCell id="C-vyLk0tnHw3VtMMgP7b-14" value="" style="shape=partialRectangle;collapsible=0;dropTarget=0;pointerEvents=0;fillColor=none;points=[[0,0.5],[1,0.5]];portConstraint=eastwest;top=0;left=0;right=0;bottom=1;" parent="C-vyLk0tnHw3VtMMgP7b-13" vertex="1"><mxGeometry y="30" width="270" height="30" as="geometry"/></mxCell><mxCell id="C-vyLk0tnHw3VtMMgP7b-15" value="" style="shape=partialRectangle;overflow=hidden;connectable=0;fillColor=none;top=0;left=0;bottom=0;right=0;fontStyle=1;" parent="C-vyLk0tnHw3VtMMgP7b-14" vertex="1"><mxGeometry width="30" height="30" as="geometry"/></mxCell><mxCell id="C-vyLk0tnHw3VtMMgP7b-16" value="book_id int NOT NULL " style="shape=partialRectangle;overflow=hidden;connectable=0;fillColor=none;top=0;left=0;bottom=0;right=0;align=left;spacingLeft=6;fontStyle=5;" parent="C-vyLk0tnHw3VtMMgP7b-14" vertex="1"><mxGeometry x="30" width="240" height="30" as="geometry"/></mxCell><mxCell id="C-vyLk0tnHw3VtMMgP7b-17" value="" style="shape=partialRectangle;collapsible=0;dropTarget=0;pointerEvents=0;fillColor=none;points=[[0,0.5],[1,0.5]];portConstraint=eastwest;top=0;left=0;right=0;bottom=0;" parent="C-vyLk0tnHw3VtMMgP7b-13" vertex="1"><mxGeometry y="60" width="270" height="30" as="geometry"/></mxCell><mxCell id="C-vyLk0tnHw3VtMMgP7b-18" value="" style="shape=partialRectangle;overflow=hidden;connectable=0;fillColor=none;top=0;left=0;bottom=0;right=0;" parent="C-vyLk0tnHw3VtMMgP7b-17" vertex="1"><mxGeometry width="30" height="30" as="geometry"/></mxCell><mxCell id="C-vyLk0tnHw3VtMMgP7b-19" value="purchase_id int NOT NULL" style="shape=partialRectangle;overflow=hidden;connectable=0;fillColor=none;top=0;left=0;bottom=0;right=0;align=left;spacingLeft=6;" parent="C-vyLk0tnHw3VtMMgP7b-17" vertex="1"><mxGeometry x="30" width="240" height="30" as="geometry"/></mxCell><mxCell id="C-vyLk0tnHw3VtMMgP7b-20" value="" style="shape=partialRectangle;collapsible=0;dropTarget=0;pointerEvents=0;fillColor=none;points=[[0,0.5],[1,0.5]];portConstraint=eastwest;top=0;left=0;right=0;bottom=0;" parent="C-vyLk0tnHw3VtMMgP7b-13" vertex="1"><mxGeometry y="90" width="270" height="30" as="geometry"/></mxCell><mxCell id="C-vyLk0tnHw3VtMMgP7b-21" value="" style="shape=partialRectangle;overflow=hidden;connectable=0;fillColor=none;top=0;left=0;bottom=0;right=0;" parent="C-vyLk0tnHw3VtMMgP7b-20" vertex="1"><mxGeometry width="30" height="30" as="geometry"/></mxCell><mxCell id="C-vyLk0tnHw3VtMMgP7b-22" value="title varchar(250) NOT NULL" style="shape=partialRectangle;overflow=hidden;connectable=0;fillColor=none;top=0;left=0;bottom=0;right=0;align=left;spacingLeft=6;" parent="C-vyLk0tnHw3VtMMgP7b-20" vertex="1"><mxGeometry x="30" width="240" height="30" as="geometry"/></mxCell><mxCell id="C-vyLk0tnHw3VtMMgP7b-23" value="Users" style="shape=table;startSize=30;container=1;collapsible=1;childLayout=tableLayout;fixedRows=1;rowLines=0;fontStyle=1;align=center;resizeLast=1;" parent="1" vertex="1"><mxGeometry x="30" y="20" width="250" height="320" as="geometry"/></mxCell><mxCell id="C-vyLk0tnHw3VtMMgP7b-24" value="" style="shape=partialRectangle;collapsible=0;dropTarget=0;pointerEvents=0;fillColor=none;points=[[0,0.5],[1,0.5]];portConstraint=eastwest;top=0;left=0;right=0;bottom=1;" parent="C-vyLk0tnHw3VtMMgP7b-23" vertex="1"><mxGeometry y="30" width="250" height="50" as="geometry"/></mxCell><mxCell id="C-vyLk0tnHw3VtMMgP7b-25" value="PK,&#10;FK" style="shape=partialRectangle;overflow=hidden;connectable=0;fillColor=none;top=0;left=0;bottom=0;right=0;fontStyle=1;" parent="C-vyLk0tnHw3VtMMgP7b-24" vertex="1"><mxGeometry width="30" height="50" as="geometry"/></mxCell><mxCell id="C-vyLk0tnHw3VtMMgP7b-26" value="user_id int NOT NULL " style="shape=partialRectangle;overflow=hidden;connectable=0;fillColor=none;top=0;left=0;bottom=0;right=0;align=left;spacingLeft=6;fontStyle=5;" parent="C-vyLk0tnHw3VtMMgP7b-24" vertex="1"><mxGeometry x="30" width="220" height="50" as="geometry"/></mxCell><mxCell id="C-vyLk0tnHw3VtMMgP7b-27" value="" style="shape=partialRectangle;collapsible=0;dropTarget=0;pointerEvents=0;fillColor=none;points=[[0,0.5],[1,0.5]];portConstraint=eastwest;top=0;left=0;right=0;bottom=0;" parent="C-vyLk0tnHw3VtMMgP7b-23" vertex="1"><mxGeometry y="80" width="250" height="30" as="geometry"/></mxCell><mxCell id="C-vyLk0tnHw3VtMMgP7b-28" value="" style="shape=partialRectangle;overflow=hidden;connectable=0;fillColor=none;top=0;left=0;bottom=0;right=0;" parent="C-vyLk0tnHw3VtMMgP7b-27" vertex="1"><mxGeometry width="30" height="30" as="geometry"/></mxCell><mxCell id="C-vyLk0tnHw3VtMMgP7b-29" value="username varchar(50) NOT NULL" style="shape=partialRectangle;overflow=hidden;connectable=0;fillColor=none;top=0;left=0;bottom=0;right=0;align=left;spacingLeft=6;" parent="C-vyLk0tnHw3VtMMgP7b-27" vertex="1"><mxGeometry x="30" width="220" height="30" as="geometry"/></mxCell><mxCell id="xtPc2WdFi_5OGqrr5jtr-1" value="password varchar(50) NOT NULL" style="shape=partialRectangle;overflow=hidden;connectable=0;fillColor=none;top=0;left=0;bottom=0;right=0;align=left;spacingLeft=6;" parent="1" vertex="1"><mxGeometry x="60" y="120" width="220" height="30" as="geometry"/></mxCell><UserObject label="role ENUM(ADMIN, USER) NOT NULL" tooltip="Возможно целесообразно сделать встроенную таблицу с контактами" id="xtPc2WdFi_5OGqrr5jtr-2"><mxCell style="shape=partialRectangle;overflow=hidden;connectable=0;fillColor=none;top=0;left=0;bottom=0;right=0;align=left;spacingLeft=6;" parent="1" vertex="1"><mxGeometry x="60" y="160" width="220" height="20" as="geometry"/></mxCell></UserObject><mxCell id="xtPc2WdFi_5OGqrr5jtr-3" value="role date_reg DATE NOT NULL" style="shape=partialRectangle;overflow=hidden;connectable=0;fillColor=none;top=0;left=0;bottom=0;right=0;align=left;spacingLeft=6;" parent="1" vertex="1"><mxGeometry x="60" y="189" width="220" height="20" as="geometry"/></mxCell><mxCell id="xtPc2WdFi_5OGqrr5jtr-4" value="role balance DOUBLE NOT NULL" style="shape=partialRectangle;overflow=hidden;connectable=0;fillColor=none;top=0;left=0;bottom=0;right=0;align=left;spacingLeft=6;" parent="1" vertex="1"><mxGeometry x="60" y="219" width="220" height="20" as="geometry"/></mxCell><mxCell id="xtPc2WdFi_5OGqrr5jtr-5" value="some_contacts varchar(250) NOT NULL" style="shape=partialRectangle;overflow=hidden;connectable=0;fillColor=none;top=0;left=0;bottom=0;right=0;align=left;spacingLeft=6;" parent="1" vertex="1"><mxGeometry x="60" y="239" width="220" height="30" as="geometry"/></mxCell><mxCell id="xtPc2WdFi_5OGqrr5jtr-8" value="book_id int NOT NULL" style="shape=partialRectangle;overflow=hidden;connectable=0;fillColor=none;top=0;left=0;bottom=0;right=0;align=left;spacingLeft=6;" parent="1" vertex="1"><mxGeometry x="70" y="560" width="220" height="30" as="geometry"/></mxCell><mxCell id="xtPc2WdFi_5OGqrr5jtr-9" value="book_status ENUM NOT NULL" style="shape=partialRectangle;overflow=hidden;connectable=0;fillColor=none;top=0;left=0;bottom=0;right=0;align=left;spacingLeft=6;" parent="1" vertex="1"><mxGeometry x="70" y="530" width="220" height="30" as="geometry"/></mxCell><mxCell id="xtPc2WdFi_5OGqrr5jtr-10" value="" style="edgeStyle=elbowEdgeStyle;fontSize=12;html=1;endArrow=ERoneToMany;startArrow=ERoneToMany;entryX=0;entryY=0.5;entryDx=0;entryDy=0;" parent="1" target="C-vyLk0tnHw3VtMMgP7b-17" edge="1"><mxGeometry width="100" height="100" relative="1" as="geometry"><mxPoint x="290" y="580" as="sourcePoint"/><mxPoint x="470" y="280" as="targetPoint"/><Array as="points"><mxPoint x="330" y="490"/></Array></mxGeometry></mxCell><mxCell id="xtPc2WdFi_5OGqrr5jtr-11" value="price DOUBLE NOT NULL" style="shape=partialRectangle;overflow=hidden;connectable=0;fillColor=none;top=0;left=0;bottom=0;right=0;align=left;spacingLeft=6;" parent="1" vertex="1"><mxGeometry x="390" y="470" width="220" height="30" as="geometry"/></mxCell><mxCell id="xtPc2WdFi_5OGqrr5jtr-12" value="author_id int NOT NULL" style="shape=partialRectangle;overflow=hidden;connectable=0;fillColor=none;top=0;left=0;bottom=0;right=0;align=left;spacingLeft=6;" parent="1" vertex="1"><mxGeometry x="390" y="450" width="220" height="30" as="geometry"/></mxCell><mxCell id="xtPc2WdFi_5OGqrr5jtr-13" value="genre_id int NOT NULL" style="shape=partialRectangle;overflow=hidden;connectable=0;fillColor=none;top=0;left=0;bottom=0;right=0;align=left;spacingLeft=6;" parent="1" vertex="1"><mxGeometry x="390" y="500" width="220" height="30" as="geometry"/></mxCell><mxCell id="xtPc2WdFi_5OGqrr5jtr-16" value="description TEXT" style="shape=partialRectangle;overflow=hidden;connectable=0;fillColor=none;top=0;left=0;bottom=0;right=0;align=left;spacingLeft=6;" parent="1" vertex="1"><mxGeometry x="390" y="530" width="220" height="30" as="geometry"/></mxCell><mxCell id="xtPc2WdFi_5OGqrr5jtr-17" value="date_pub DATE NOT NULL" style="shape=partialRectangle;overflow=hidden;connectable=0;fillColor=none;top=0;left=0;bottom=0;right=0;align=left;spacingLeft=6;" parent="1" vertex="1"><mxGeometry x="390" y="560" width="220" height="30" as="geometry"/></mxCell><mxCell id="xtPc2WdFi_5OGqrr5jtr-18" value="discount TINYINT NOT NULL DEFAULT 0" style="shape=partialRectangle;overflow=hidden;connectable=0;fillColor=none;top=0;left=0;bottom=0;right=0;align=left;spacingLeft=6;" parent="1" vertex="1"><mxGeometry x="390" y="590" width="240" height="30" as="geometry"/></mxCell><mxCell id="xtPc2WdFi_5OGqrr5jtr-19" value="img BLOB" style="shape=partialRectangle;overflow=hidden;connectable=0;fillColor=none;top=0;left=0;bottom=0;right=0;align=left;spacingLeft=6;" parent="1" vertex="1"><mxGeometry x="390" y="620" width="220" height="30" as="geometry"/></mxCell><mxCell id="xtPc2WdFi_5OGqrr5jtr-20" value="path_to_file varchar(250) NOT NULL" style="shape=partialRectangle;overflow=hidden;connectable=0;fillColor=none;top=0;left=0;bottom=0;right=0;align=left;spacingLeft=6;" parent="1" vertex="1"><mxGeometry x="390" y="650" width="240" height="30" as="geometry"/></mxCell><mxCell id="xtPc2WdFi_5OGqrr5jtr-21" value="is_bestceller BOOLEAN NOT NULL" style="shape=partialRectangle;overflow=hidden;connectable=0;fillColor=none;top=0;left=0;bottom=0;right=0;align=left;spacingLeft=6;" parent="1" vertex="1"><mxGeometry x="390" y="680" width="220" height="30" as="geometry"/></mxCell><mxCell id="xtPc2WdFi_5OGqrr5jtr-22" value="Transactions" style="shape=table;startSize=30;container=1;collapsible=1;childLayout=tableLayout;fixedRows=1;rowLines=0;fontStyle=1;align=center;resizeLast=1;" parent="1" vertex="1"><mxGeometry x="360" y="20" width="260" height="200" as="geometry"/></mxCell><mxCell id="xtPc2WdFi_5OGqrr5jtr-23" value="" style="shape=partialRectangle;collapsible=0;dropTarget=0;pointerEvents=0;fillColor=none;top=0;left=0;bottom=1;right=0;points=[[0,0.5],[1,0.5]];portConstraint=eastwest;" parent="xtPc2WdFi_5OGqrr5jtr-22" vertex="1"><mxGeometry y="30" width="260" height="30" as="geometry"/></mxCell><mxCell id="xtPc2WdFi_5OGqrr5jtr-24" value="" style="shape=partialRectangle;connectable=0;fillColor=none;top=0;left=0;bottom=0;right=0;fontStyle=1;overflow=hidden;" parent="xtPc2WdFi_5OGqrr5jtr-23" vertex="1"><mxGeometry width="30" height="30" as="geometry"/></mxCell><mxCell id="xtPc2WdFi_5OGqrr5jtr-25" value="transaction_id INT NOT NULL" style="shape=partialRectangle;connectable=0;fillColor=none;top=0;left=0;bottom=0;right=0;align=left;spacingLeft=6;fontStyle=5;overflow=hidden;" parent="xtPc2WdFi_5OGqrr5jtr-23" vertex="1"><mxGeometry x="30" width="230" height="30" as="geometry"/></mxCell><mxCell id="xtPc2WdFi_5OGqrr5jtr-26" value="" style="shape=partialRectangle;collapsible=0;dropTarget=0;pointerEvents=0;fillColor=none;top=0;left=0;bottom=0;right=0;points=[[0,0.5],[1,0.5]];portConstraint=eastwest;" parent="xtPc2WdFi_5OGqrr5jtr-22" vertex="1"><mxGeometry y="60" width="260" height="30" as="geometry"/></mxCell><mxCell id="xtPc2WdFi_5OGqrr5jtr-27" value="" style="shape=partialRectangle;connectable=0;fillColor=none;top=0;left=0;bottom=0;right=0;editable=1;overflow=hidden;" parent="xtPc2WdFi_5OGqrr5jtr-26" vertex="1"><mxGeometry width="30" height="30" as="geometry"/></mxCell><mxCell id="xtPc2WdFi_5OGqrr5jtr-28" value="amount INT NOT NULL" style="shape=partialRectangle;connectable=0;fillColor=none;top=0;left=0;bottom=0;right=0;align=left;spacingLeft=6;overflow=hidden;" parent="xtPc2WdFi_5OGqrr5jtr-26" vertex="1"><mxGeometry x="30" width="230" height="30" as="geometry"/></mxCell><mxCell id="xtPc2WdFi_5OGqrr5jtr-29" value="" style="shape=partialRectangle;collapsible=0;dropTarget=0;pointerEvents=0;fillColor=none;top=0;left=0;bottom=0;right=0;points=[[0,0.5],[1,0.5]];portConstraint=eastwest;" parent="xtPc2WdFi_5OGqrr5jtr-22" vertex="1"><mxGeometry y="90" width="260" height="30" as="geometry"/></mxCell><mxCell id="xtPc2WdFi_5OGqrr5jtr-30" value="" style="shape=partialRectangle;connectable=0;fillColor=none;top=0;left=0;bottom=0;right=0;editable=1;overflow=hidden;" parent="xtPc2WdFi_5OGqrr5jtr-29" vertex="1"><mxGeometry width="30" height="30" as="geometry"/></mxCell><mxCell id="xtPc2WdFi_5OGqrr5jtr-31" value="purchase_id INT NOT NULL" style="shape=partialRectangle;connectable=0;fillColor=none;top=0;left=0;bottom=0;right=0;align=left;spacingLeft=6;overflow=hidden;" parent="xtPc2WdFi_5OGqrr5jtr-29" vertex="1"><mxGeometry x="30" width="230" height="30" as="geometry"/></mxCell><mxCell id="xtPc2WdFi_5OGqrr5jtr-32" value="" style="shape=partialRectangle;collapsible=0;dropTarget=0;pointerEvents=0;fillColor=none;top=0;left=0;bottom=0;right=0;points=[[0,0.5],[1,0.5]];portConstraint=eastwest;" parent="xtPc2WdFi_5OGqrr5jtr-22" vertex="1"><mxGeometry y="120" width="260" height="30" as="geometry"/></mxCell><mxCell id="xtPc2WdFi_5OGqrr5jtr-33" value="" style="shape=partialRectangle;connectable=0;fillColor=none;top=0;left=0;bottom=0;right=0;editable=1;overflow=hidden;" parent="xtPc2WdFi_5OGqrr5jtr-32" vertex="1"><mxGeometry width="30" height="30" as="geometry"/></mxCell><mxCell id="xtPc2WdFi_5OGqrr5jtr-34" value="user_id INT NOT NULL" style="shape=partialRectangle;connectable=0;fillColor=none;top=0;left=0;bottom=0;right=0;align=left;spacingLeft=6;overflow=hidden;" parent="xtPc2WdFi_5OGqrr5jtr-32" vertex="1"><mxGeometry x="30" width="230" height="30" as="geometry"/></mxCell><mxCell id="xtPc2WdFi_5OGqrr5jtr-48" value="Genres" style="shape=table;startSize=30;container=1;collapsible=1;childLayout=tableLayout;fixedRows=1;rowLines=0;fontStyle=1;align=center;resizeLast=1;" parent="1" vertex="1"><mxGeometry x="660" y="560" width="180" height="160" as="geometry"/></mxCell><mxCell id="xtPc2WdFi_5OGqrr5jtr-49" value="" style="shape=partialRectangle;collapsible=0;dropTarget=0;pointerEvents=0;fillColor=none;top=0;left=0;bottom=1;right=0;points=[[0,0.5],[1,0.5]];portConstraint=eastwest;" parent="xtPc2WdFi_5OGqrr5jtr-48" vertex="1"><mxGeometry y="30" width="180" height="30" as="geometry"/></mxCell><mxCell id="xtPc2WdFi_5OGqrr5jtr-50" value="" style="shape=partialRectangle;connectable=0;fillColor=none;top=0;left=0;bottom=0;right=0;fontStyle=1;overflow=hidden;" parent="xtPc2WdFi_5OGqrr5jtr-49" vertex="1"><mxGeometry width="30" height="30" as="geometry"/></mxCell><mxCell id="xtPc2WdFi_5OGqrr5jtr-51" value="genre_id INT NOT NULL" style="shape=partialRectangle;connectable=0;fillColor=none;top=0;left=0;bottom=0;right=0;align=left;spacingLeft=6;fontStyle=5;overflow=hidden;" parent="xtPc2WdFi_5OGqrr5jtr-49" vertex="1"><mxGeometry x="30" width="150" height="30" as="geometry"/></mxCell><mxCell id="xtPc2WdFi_5OGqrr5jtr-52" value="" style="shape=partialRectangle;collapsible=0;dropTarget=0;pointerEvents=0;fillColor=none;top=0;left=0;bottom=0;right=0;points=[[0,0.5],[1,0.5]];portConstraint=eastwest;" parent="xtPc2WdFi_5OGqrr5jtr-48" vertex="1"><mxGeometry y="60" width="180" height="30" as="geometry"/></mxCell><mxCell id="xtPc2WdFi_5OGqrr5jtr-53" value="" style="shape=partialRectangle;connectable=0;fillColor=none;top=0;left=0;bottom=0;right=0;editable=1;overflow=hidden;" parent="xtPc2WdFi_5OGqrr5jtr-52" vertex="1"><mxGeometry width="30" height="30" as="geometry"/></mxCell><mxCell id="xtPc2WdFi_5OGqrr5jtr-54" value="name VARCHAR(250)" style="shape=partialRectangle;connectable=0;fillColor=none;top=0;left=0;bottom=0;right=0;align=left;spacingLeft=6;overflow=hidden;" parent="xtPc2WdFi_5OGqrr5jtr-52" vertex="1"><mxGeometry x="30" width="150" height="30" as="geometry"/></mxCell><mxCell id="xtPc2WdFi_5OGqrr5jtr-55" value="" style="shape=partialRectangle;collapsible=0;dropTarget=0;pointerEvents=0;fillColor=none;top=0;left=0;bottom=0;right=0;points=[[0,0.5],[1,0.5]];portConstraint=eastwest;" parent="xtPc2WdFi_5OGqrr5jtr-48" vertex="1"><mxGeometry y="90" width="180" height="30" as="geometry"/></mxCell><mxCell id="xtPc2WdFi_5OGqrr5jtr-56" value="" style="shape=partialRectangle;connectable=0;fillColor=none;top=0;left=0;bottom=0;right=0;editable=1;overflow=hidden;" parent="xtPc2WdFi_5OGqrr5jtr-55" vertex="1"><mxGeometry width="30" height="30" as="geometry"/></mxCell><mxCell id="xtPc2WdFi_5OGqrr5jtr-57" value="" style="shape=partialRectangle;connectable=0;fillColor=none;top=0;left=0;bottom=0;right=0;align=left;spacingLeft=6;overflow=hidden;" parent="xtPc2WdFi_5OGqrr5jtr-55" vertex="1"><mxGeometry x="30" width="150" height="30" as="geometry"/></mxCell><mxCell id="xtPc2WdFi_5OGqrr5jtr-58" value="" style="shape=partialRectangle;collapsible=0;dropTarget=0;pointerEvents=0;fillColor=none;top=0;left=0;bottom=0;right=0;points=[[0,0.5],[1,0.5]];portConstraint=eastwest;" parent="xtPc2WdFi_5OGqrr5jtr-48" vertex="1"><mxGeometry y="120" width="180" height="30" as="geometry"/></mxCell><mxCell id="xtPc2WdFi_5OGqrr5jtr-59" value="" style="shape=partialRectangle;connectable=0;fillColor=none;top=0;left=0;bottom=0;right=0;editable=1;overflow=hidden;" parent="xtPc2WdFi_5OGqrr5jtr-58" vertex="1"><mxGeometry width="30" height="30" as="geometry"/></mxCell><mxCell id="xtPc2WdFi_5OGqrr5jtr-60" value="" style="shape=partialRectangle;connectable=0;fillColor=none;top=0;left=0;bottom=0;right=0;align=left;spacingLeft=6;overflow=hidden;" parent="xtPc2WdFi_5OGqrr5jtr-58" vertex="1"><mxGeometry x="30" width="150" height="30" as="geometry"/></mxCell><mxCell id="xtPc2WdFi_5OGqrr5jtr-61" value="Reviews" style="shape=table;startSize=30;container=1;collapsible=1;childLayout=tableLayout;fixedRows=1;rowLines=0;fontStyle=1;align=center;resizeLast=1;" parent="1" vertex="1"><mxGeometry x="660" y="340" width="180" height="160" as="geometry"/></mxCell><mxCell id="xtPc2WdFi_5OGqrr5jtr-62" value="" style="shape=partialRectangle;collapsible=0;dropTarget=0;pointerEvents=0;fillColor=none;top=0;left=0;bottom=1;right=0;points=[[0,0.5],[1,0.5]];portConstraint=eastwest;" parent="xtPc2WdFi_5OGqrr5jtr-61" vertex="1"><mxGeometry y="30" width="180" height="30" as="geometry"/></mxCell><mxCell id="xtPc2WdFi_5OGqrr5jtr-63" value="" style="shape=partialRectangle;connectable=0;fillColor=none;top=0;left=0;bottom=0;right=0;fontStyle=1;overflow=hidden;" parent="xtPc2WdFi_5OGqrr5jtr-62" vertex="1"><mxGeometry width="30" height="30" as="geometry"/></mxCell><mxCell id="xtPc2WdFi_5OGqrr5jtr-64" value="review_id INT NOT NULL" style="shape=partialRectangle;connectable=0;fillColor=none;top=0;left=0;bottom=0;right=0;align=left;spacingLeft=6;fontStyle=5;overflow=hidden;" parent="xtPc2WdFi_5OGqrr5jtr-62" vertex="1"><mxGeometry x="30" width="150" height="30" as="geometry"/></mxCell><mxCell id="xtPc2WdFi_5OGqrr5jtr-65" value="" style="shape=partialRectangle;collapsible=0;dropTarget=0;pointerEvents=0;fillColor=none;top=0;left=0;bottom=0;right=0;points=[[0,0.5],[1,0.5]];portConstraint=eastwest;" parent="xtPc2WdFi_5OGqrr5jtr-61" vertex="1"><mxGeometry y="60" width="180" height="30" as="geometry"/></mxCell><mxCell id="xtPc2WdFi_5OGqrr5jtr-66" value="" style="shape=partialRectangle;connectable=0;fillColor=none;top=0;left=0;bottom=0;right=0;editable=1;overflow=hidden;" parent="xtPc2WdFi_5OGqrr5jtr-65" vertex="1"><mxGeometry width="30" height="30" as="geometry"/></mxCell><mxCell id="xtPc2WdFi_5OGqrr5jtr-67" value="book_id INT NOT NULL" style="shape=partialRectangle;connectable=0;fillColor=none;top=0;left=0;bottom=0;right=0;align=left;spacingLeft=6;overflow=hidden;" parent="xtPc2WdFi_5OGqrr5jtr-65" vertex="1"><mxGeometry x="30" width="150" height="30" as="geometry"/></mxCell><mxCell id="xtPc2WdFi_5OGqrr5jtr-68" value="" style="shape=partialRectangle;collapsible=0;dropTarget=0;pointerEvents=0;fillColor=none;top=0;left=0;bottom=0;right=0;points=[[0,0.5],[1,0.5]];portConstraint=eastwest;" parent="xtPc2WdFi_5OGqrr5jtr-61" vertex="1"><mxGeometry y="90" width="180" height="30" as="geometry"/></mxCell><mxCell id="xtPc2WdFi_5OGqrr5jtr-69" value="" style="shape=partialRectangle;connectable=0;fillColor=none;top=0;left=0;bottom=0;right=0;editable=1;overflow=hidden;" parent="xtPc2WdFi_5OGqrr5jtr-68" vertex="1"><mxGeometry width="30" height="30" as="geometry"/></mxCell><mxCell id="xtPc2WdFi_5OGqrr5jtr-70" value="rev_date DATE NOT NULL" style="shape=partialRectangle;connectable=0;fillColor=none;top=0;left=0;bottom=0;right=0;align=left;spacingLeft=6;overflow=hidden;" parent="xtPc2WdFi_5OGqrr5jtr-68" vertex="1"><mxGeometry x="30" width="150" height="30" as="geometry"/></mxCell><mxCell id="xtPc2WdFi_5OGqrr5jtr-71" value="" style="shape=partialRectangle;collapsible=0;dropTarget=0;pointerEvents=0;fillColor=none;top=0;left=0;bottom=0;right=0;points=[[0,0.5],[1,0.5]];portConstraint=eastwest;" parent="xtPc2WdFi_5OGqrr5jtr-61" vertex="1"><mxGeometry y="120" width="180" height="30" as="geometry"/></mxCell><mxCell id="xtPc2WdFi_5OGqrr5jtr-72" value="" style="shape=partialRectangle;connectable=0;fillColor=none;top=0;left=0;bottom=0;right=0;editable=1;overflow=hidden;" parent="xtPc2WdFi_5OGqrr5jtr-71" vertex="1"><mxGeometry width="30" height="30" as="geometry"/></mxCell><mxCell id="xtPc2WdFi_5OGqrr5jtr-73" value="text TEXT" style="shape=partialRectangle;connectable=0;fillColor=none;top=0;left=0;bottom=0;right=0;align=left;spacingLeft=6;overflow=hidden;" parent="xtPc2WdFi_5OGqrr5jtr-71" vertex="1"><mxGeometry x="30" width="150" height="30" as="geometry"/></mxCell><mxCell id="xtPc2WdFi_5OGqrr5jtr-74" value="Authors" style="shape=table;startSize=30;container=1;collapsible=1;childLayout=tableLayout;fixedRows=1;rowLines=0;fontStyle=1;align=center;resizeLast=1;" parent="1" vertex="1"><mxGeometry x="40" y="640" width="250" height="190" as="geometry"/></mxCell><mxCell id="xtPc2WdFi_5OGqrr5jtr-75" value="" style="shape=partialRectangle;collapsible=0;dropTarget=0;pointerEvents=0;fillColor=none;top=0;left=0;bottom=1;right=0;points=[[0,0.5],[1,0.5]];portConstraint=eastwest;" parent="xtPc2WdFi_5OGqrr5jtr-74" vertex="1"><mxGeometry y="30" width="250" height="30" as="geometry"/></mxCell><mxCell id="xtPc2WdFi_5OGqrr5jtr-76" value="" style="shape=partialRectangle;connectable=0;fillColor=none;top=0;left=0;bottom=0;right=0;fontStyle=1;overflow=hidden;" parent="xtPc2WdFi_5OGqrr5jtr-75" vertex="1"><mxGeometry width="30" height="30" as="geometry"/></mxCell><mxCell id="xtPc2WdFi_5OGqrr5jtr-77" value="author_id INT NOT NULL" style="shape=partialRectangle;connectable=0;fillColor=none;top=0;left=0;bottom=0;right=0;align=left;spacingLeft=6;fontStyle=5;overflow=hidden;" parent="xtPc2WdFi_5OGqrr5jtr-75" vertex="1"><mxGeometry x="30" width="220" height="30" as="geometry"/></mxCell><mxCell id="xtPc2WdFi_5OGqrr5jtr-78" value="" style="shape=partialRectangle;collapsible=0;dropTarget=0;pointerEvents=0;fillColor=none;top=0;left=0;bottom=0;right=0;points=[[0,0.5],[1,0.5]];portConstraint=eastwest;" parent="xtPc2WdFi_5OGqrr5jtr-74" vertex="1"><mxGeometry y="60" width="250" height="30" as="geometry"/></mxCell><mxCell id="xtPc2WdFi_5OGqrr5jtr-79" value="" style="shape=partialRectangle;connectable=0;fillColor=none;top=0;left=0;bottom=0;right=0;editable=1;overflow=hidden;" parent="xtPc2WdFi_5OGqrr5jtr-78" vertex="1"><mxGeometry width="30" height="30" as="geometry"/></mxCell><mxCell id="xtPc2WdFi_5OGqrr5jtr-80" value="surname VARHAR NOT NULL" style="shape=partialRectangle;connectable=0;fillColor=none;top=0;left=0;bottom=0;right=0;align=left;spacingLeft=6;overflow=hidden;" parent="xtPc2WdFi_5OGqrr5jtr-78" vertex="1"><mxGeometry x="30" width="220" height="30" as="geometry"/></mxCell><mxCell id="xtPc2WdFi_5OGqrr5jtr-81" value="" style="shape=partialRectangle;collapsible=0;dropTarget=0;pointerEvents=0;fillColor=none;top=0;left=0;bottom=0;right=0;points=[[0,0.5],[1,0.5]];portConstraint=eastwest;" parent="xtPc2WdFi_5OGqrr5jtr-74" vertex="1"><mxGeometry y="90" width="250" height="30" as="geometry"/></mxCell><mxCell id="xtPc2WdFi_5OGqrr5jtr-82" value="" style="shape=partialRectangle;connectable=0;fillColor=none;top=0;left=0;bottom=0;right=0;editable=1;overflow=hidden;" parent="xtPc2WdFi_5OGqrr5jtr-81" vertex="1"><mxGeometry width="30" height="30" as="geometry"/></mxCell><mxCell id="xtPc2WdFi_5OGqrr5jtr-83" value="first_name VARCHAR" style="shape=partialRectangle;connectable=0;fillColor=none;top=0;left=0;bottom=0;right=0;align=left;spacingLeft=6;overflow=hidden;" parent="xtPc2WdFi_5OGqrr5jtr-81" vertex="1"><mxGeometry x="30" width="220" height="30" as="geometry"/></mxCell><mxCell id="xtPc2WdFi_5OGqrr5jtr-84" value="" style="shape=partialRectangle;collapsible=0;dropTarget=0;pointerEvents=0;fillColor=none;top=0;left=0;bottom=0;right=0;points=[[0,0.5],[1,0.5]];portConstraint=eastwest;" parent="xtPc2WdFi_5OGqrr5jtr-74" vertex="1"><mxGeometry y="120" width="250" height="30" as="geometry"/></mxCell><mxCell id="xtPc2WdFi_5OGqrr5jtr-85" value="" style="shape=partialRectangle;connectable=0;fillColor=none;top=0;left=0;bottom=0;right=0;editable=1;overflow=hidden;" parent="xtPc2WdFi_5OGqrr5jtr-84" vertex="1"><mxGeometry width="30" height="30" as="geometry"/></mxCell><mxCell id="xtPc2WdFi_5OGqrr5jtr-86" value="description TEXT" style="shape=partialRectangle;connectable=0;fillColor=none;top=0;left=0;bottom=0;right=0;align=left;spacingLeft=6;overflow=hidden;" parent="xtPc2WdFi_5OGqrr5jtr-84" vertex="1"><mxGeometry x="30" width="220" height="30" as="geometry"/></mxCell><mxCell id="xtPc2WdFi_5OGqrr5jtr-89" value="FAQ" style="swimlane;childLayout=stackLayout;horizontal=1;startSize=30;horizontalStack=0;rounded=1;fontSize=14;fontStyle=0;strokeWidth=2;resizeParent=0;resizeLast=1;shadow=0;dashed=0;align=center;" parent="1" vertex="1"><mxGeometry x="280" y="920" width="160" height="120" as="geometry"/></mxCell><mxCell id="xtPc2WdFi_5OGqrr5jtr-90" value="+id&#10;+question&#10;+answer" style="align=left;strokeColor=none;fillColor=none;spacingLeft=4;fontSize=12;verticalAlign=top;resizable=0;rotatable=0;part=1;" parent="xtPc2WdFi_5OGqrr5jtr-89" vertex="1"><mxGeometry y="30" width="160" height="90" as="geometry"/></mxCell><mxCell id="xtPc2WdFi_5OGqrr5jtr-91" value="Documents" style="swimlane;childLayout=stackLayout;horizontal=1;startSize=30;horizontalStack=0;rounded=1;fontSize=14;fontStyle=0;strokeWidth=2;resizeParent=0;resizeLast=1;shadow=0;dashed=0;align=center;" parent="1" vertex="1"><mxGeometry x="480" y="920" width="160" height="120" as="geometry"/></mxCell><mxCell id="xtPc2WdFi_5OGqrr5jtr-92" value="+id&#10;+title&#10;+text" style="align=left;strokeColor=none;fillColor=none;spacingLeft=4;fontSize=12;verticalAlign=top;resizable=0;rotatable=0;part=1;" parent="xtPc2WdFi_5OGqrr5jtr-91" vertex="1"><mxGeometry y="30" width="160" height="90" as="geometry"/></mxCell><mxCell id="xtPc2WdFi_5OGqrr5jtr-93" value="Contacts" style="swimlane;childLayout=stackLayout;horizontal=1;startSize=30;horizontalStack=0;rounded=1;fontSize=14;fontStyle=0;strokeWidth=2;resizeParent=0;resizeLast=1;shadow=0;dashed=0;align=center;" parent="1" vertex="1"><mxGeometry x="680" y="920" width="160" height="120" as="geometry"/></mxCell><mxCell id="xtPc2WdFi_5OGqrr5jtr-94" value="+id&#10;+addresse&#10;+e-mail&#10;+phone" style="align=left;strokeColor=none;fillColor=none;spacingLeft=4;fontSize=12;verticalAlign=top;resizable=0;rotatable=0;part=1;" parent="xtPc2WdFi_5OGqrr5jtr-93" vertex="1"><mxGeometry y="30" width="160" height="90" as="geometry"/></mxCell><mxCell id="xtPc2WdFi_5OGqrr5jtr-97" value="transaction_id int NOT NULL" style="shape=partialRectangle;overflow=hidden;connectable=0;fillColor=none;top=0;left=0;bottom=0;right=0;align=left;spacingLeft=6;" parent="1" vertex="1"><mxGeometry x="60" y="269" width="220" height="30" as="geometry"/></mxCell><mxCell id="xtPc2WdFi_5OGqrr5jtr-104" value="type ENUM(INCOME,OUTCOME) NOT NULL" style="shape=partialRectangle;connectable=0;fillColor=none;top=0;left=0;bottom=0;right=0;align=left;spacingLeft=6;overflow=hidden;" parent="1" vertex="1"><mxGeometry x="390" y="165" width="220" height="30" as="geometry"/></mxCell><mxCell id="xtPc2WdFi_5OGqrr5jtr-105" value="transaction_time TIME NOT NULL" style="shape=partialRectangle;overflow=hidden;connectable=0;fillColor=none;top=0;left=0;bottom=0;right=0;align=left;spacingLeft=6;" parent="1" vertex="1"><mxGeometry x="390" y="190" width="220" height="30" as="geometry"/></mxCell><mxCell id="xtPc2WdFi_5OGqrr5jtr-106" value="" style="edgeStyle=entityRelationEdgeStyle;fontSize=12;html=1;endArrow=ERmany;startArrow=ERmandOne;exitX=1;exitY=0.5;exitDx=0;exitDy=0;entryX=0;entryY=0.5;entryDx=0;entryDy=0;endFill=0;" parent="1" source="C-vyLk0tnHw3VtMMgP7b-24" target="xtPc2WdFi_5OGqrr5jtr-23" edge="1"><mxGeometry width="100" height="100" relative="1" as="geometry"><mxPoint x="420" y="370" as="sourcePoint"/><mxPoint x="350" y="60" as="targetPoint"/></mxGeometry></mxCell><mxCell id="xtPc2WdFi_5OGqrr5jtr-107" value="" style="edgeStyle=elbowEdgeStyle;fontSize=12;html=1;endArrow=ERmandOne;startArrow=ERmandOne;entryX=0;entryY=0.5;entryDx=0;entryDy=0;exitX=1;exitY=0.5;exitDx=0;exitDy=0;" parent="1" source="C-vyLk0tnHw3VtMMgP7b-3" target="xtPc2WdFi_5OGqrr5jtr-29" edge="1"><mxGeometry width="100" height="100" relative="1" as="geometry"><mxPoint x="260" y="390" as="sourcePoint"/><mxPoint x="310" y="140" as="targetPoint"/><Array as="points"><mxPoint x="300" y="290"/></Array></mxGeometry></mxCell><mxCell id="xtPc2WdFi_5OGqrr5jtr-121" value="PK,&#10;FK" style="shape=partialRectangle;overflow=hidden;connectable=0;fillColor=none;top=0;left=0;bottom=0;right=0;fontStyle=1;" parent="1" vertex="1"><mxGeometry x="360" y="40" width="30" height="50" as="geometry"/></mxCell><mxCell id="xtPc2WdFi_5OGqrr5jtr-122" value="PK,&#10;FK" style="shape=partialRectangle;overflow=hidden;connectable=0;fillColor=none;top=0;left=0;bottom=0;right=0;fontStyle=1;" parent="1" vertex="1"><mxGeometry x="40" y="420" width="30" height="50" as="geometry"/></mxCell><mxCell id="xtPc2WdFi_5OGqrr5jtr-123" value="PK,&#10;FK" style="shape=partialRectangle;overflow=hidden;connectable=0;fillColor=none;top=0;left=0;bottom=0;right=0;fontStyle=1;" parent="1" vertex="1"><mxGeometry x="360" y="350" width="30" height="50" as="geometry"/></mxCell><mxCell id="xtPc2WdFi_5OGqrr5jtr-124" value="PK,&#10;FK" style="shape=partialRectangle;overflow=hidden;connectable=0;fillColor=none;top=0;left=0;bottom=0;right=0;fontStyle=1;" parent="1" vertex="1"><mxGeometry x="660" y="360" width="30" height="50" as="geometry"/></mxCell><mxCell id="xtPc2WdFi_5OGqrr5jtr-127" value="" style="edgeStyle=entityRelationEdgeStyle;fontSize=12;html=1;endArrow=ERoneToMany;" parent="1" edge="1"><mxGeometry width="100" height="100" relative="1" as="geometry"><mxPoint x="630" y="380" as="sourcePoint"/><mxPoint x="660" y="380" as="targetPoint"/></mxGeometry></mxCell><mxCell id="xtPc2WdFi_5OGqrr5jtr-128" value="PK,&#10;FK" style="shape=partialRectangle;overflow=hidden;connectable=0;fillColor=none;top=0;left=0;bottom=0;right=0;fontStyle=1;" parent="1" vertex="1"><mxGeometry x="660" y="580" width="30" height="50" as="geometry"/></mxCell><mxCell id="xtPc2WdFi_5OGqrr5jtr-129" value="PK,&#10;FK" style="shape=partialRectangle;overflow=hidden;connectable=0;fillColor=none;top=0;left=0;bottom=0;right=0;fontStyle=1;" parent="1" vertex="1"><mxGeometry x="40" y="660" width="30" height="50" as="geometry"/></mxCell><mxCell id="xtPc2WdFi_5OGqrr5jtr-130" value="book_id int NOT NULL" style="shape=partialRectangle;overflow=hidden;connectable=0;fillColor=none;top=0;left=0;bottom=0;right=0;align=left;spacingLeft=6;" parent="1" vertex="1"><mxGeometry x="70" y="790" width="220" height="30" as="geometry"/></mxCell><mxCell id="xtPc2WdFi_5OGqrr5jtr-131" value="book_id int NOT NULL" style="shape=partialRectangle;overflow=hidden;connectable=0;fillColor=none;top=0;left=0;bottom=0;right=0;align=left;spacingLeft=6;" parent="1" vertex="1"><mxGeometry x="690" y="650" width="220" height="30" as="geometry"/></mxCell><mxCell id="xtPc2WdFi_5OGqrr5jtr-132" value="" style="edgeStyle=entityRelationEdgeStyle;fontSize=12;html=1;endArrow=ERoneToMany;startArrow=ERoneToMany;exitX=1;exitY=0.5;exitDx=0;exitDy=0;" parent="1" source="xtPc2WdFi_5OGqrr5jtr-75" edge="1"><mxGeometry width="100" height="100" relative="1" as="geometry"><mxPoint x="380" y="740" as="sourcePoint"/><mxPoint x="360" y="610" as="targetPoint"/></mxGeometry></mxCell><mxCell id="xtPc2WdFi_5OGqrr5jtr-134" value="" style="fontSize=12;html=1;endArrow=ERone;startArrow=ERmany;startFill=0;endFill=0;edgeStyle=elbowEdgeStyle;" parent="1" edge="1"><mxGeometry width="100" height="100" relative="1" as="geometry"><mxPoint x="630" y="510" as="sourcePoint"/><mxPoint x="660" y="610" as="targetPoint"/></mxGeometry></mxCell><mxCell id="xtPc2WdFi_5OGqrr5jtr-135" value="" style="fontSize=12;html=1;endArrow=ERone;startArrow=ERmany;startFill=0;endFill=0;" parent="1" edge="1"><mxGeometry width="100" height="100" relative="1" as="geometry"><mxPoint x="190" y="400" as="sourcePoint"/><mxPoint x="190" y="340" as="targetPoint"/></mxGeometry></mxCell><mxCell id="3" value="FK" style="text;html=1;align=center;verticalAlign=middle;resizable=0;points=[];autosize=1;" vertex="1" parent="1"><mxGeometry x="30" y="274" width="30" height="20" as="geometry"/></mxCell></root></mxGraphModel></diagram></mxfile>